<svg width="17" height="16" viewBox="0 0 17 16" fill="none" xmlns="http://www.w3.org/2000/svg">
<g clip-path="url(#clip0_333_22)">
<path d="M9.0669 0.430004L11.0569 4.461C11.1689 4.689 11.3869 4.847 11.6369 4.883L16.0869 5.53C16.2292 5.55096 16.3628 5.61127 16.4727 5.70412C16.5826 5.79697 16.6643 5.91868 16.7087 6.05551C16.7531 6.19234 16.7584 6.33886 16.724 6.47853C16.6896 6.6182 16.6168 6.74548 16.5139 6.846L13.2939 9.984C13.2044 10.0714 13.1374 10.1792 13.0988 10.2982C13.0601 10.4171 13.0509 10.5437 13.0719 10.667L13.8319 15.098C13.856 15.2399 13.84 15.3857 13.7857 15.519C13.7314 15.6523 13.6408 15.7677 13.5243 15.8523C13.4079 15.9368 13.2701 15.9871 13.1265 15.9975C12.9829 16.0079 12.8393 15.9779 12.7119 15.911L8.7319 13.819C8.62114 13.7609 8.49795 13.7306 8.3729 13.7306C8.24784 13.7306 8.12465 13.7609 8.0139 13.819L4.0339 15.911C3.90649 15.9777 3.76301 16.0074 3.61961 15.9969C3.47621 15.9864 3.3386 15.936 3.22228 15.8515C3.10596 15.767 3.01555 15.6517 2.96124 15.5185C2.90693 15.3854 2.89088 15.2398 2.9149 15.098L3.6749 10.667C3.69618 10.5437 3.68708 10.417 3.6484 10.298C3.60972 10.179 3.54261 10.0712 3.4529 9.984L0.232895 6.846C0.129973 6.74542 0.0572164 6.61806 0.0228383 6.47831C-0.0115398 6.33856 -0.00617081 6.19199 0.0383392 6.05513C0.0828493 5.91827 0.164728 5.79658 0.274734 5.70379C0.38474 5.611 0.518493 5.55081 0.660895 5.53L5.1099 4.883C5.2335 4.86484 5.35086 4.81696 5.45188 4.74345C5.5529 4.66995 5.63458 4.57303 5.6899 4.461L7.67989 0.430004C7.74393 0.300798 7.84279 0.192051 7.96532 0.116023C8.08786 0.0399951 8.22919 -0.000289917 8.37339 -0.000289917C8.5176 -0.000289917 8.65893 0.0399951 8.78147 0.116023C8.904 0.192051 9.00286 0.300798 9.0669 0.430004V0.430004Z" fill="#18A0FB"/>
</g>
<defs>
<clipPath id="clip0_333_22">
<rect width="17" height="16" fill="white"/>
</clipPath>
</defs>
</svg>
